# xmcd CD database file
#
# Track frame offsets:
#	150
#	17376
#	34420
#	53264
#	65783
#	81556
#	101767
#	114666
#
# Disc length: 1763 seconds
#
# Revision: 0
# Processed by: cddbd v1.5.1PL0 Copyright (c) Steve Scherf et al.
# Submitted via: CDex 1.51
#
DISCID=6606e108
DTITLE=Allan Webster -  - The Joker's Wild
DYEAR=2005
DGENRE=Country
TTITLE0=Allan Webster - As Much As I Loved You
TTITLE1=Allan Webster - California Blue
TTITLE2=Allan Webster - On The Other Hand
TTITLE3=Allan Webster - I've Got A Lot To Learn
TTITLE4=Allan Webster - I Just Wanna Dance With You
TTITLE5=Allan Webster - From Whence You Came
TTITLE6=Allan Webster - That's The Waylove Goes
TTITLE7=Allan Webster - The Joker's Wild
EXTD=YEAR: 2005
EXTT0=
EXTT1=
EXTT2=
EXTT3=
EXTT4=
EXTT5=
EXTT6=
EXTT7=
PLAYORDER=
